<?xml version="1.0" standalone="no"?>
<!DOCTYPE svg PUBLIC "-//W3C//DTD SVG 20010904//EN"
 "http://www.w3.org/TR/2001/REC-SVG-20010904/DTD/svg10.dtd">
<svg version="1.0" xmlns="http://www.w3.org/2000/svg"
 width="384.000000pt" height="296.000000pt" viewBox="0 0 384.000000 296.000000"
 preserveAspectRatio="xMidYMid meet">

<g transform="translate(0.000000,296.000000) scale(0.100000,-0.100000)"
fill="#000000" stroke="none">
<path d="M2060 2045 c0 -267 2 -485 3 -485 7 0 72 34 77 40 3 3 43 23 91 43
47 20 161 73 255 117 172 83 272 129 514 240 146 66 200 98 200 118 0 6 -4 12
-9 12 -4 0 -73 -31 -152 -69 -79 -38 -205 -97 -279 -131 -125 -58 -203 -95
-430 -202 -47 -23 -118 -56 -157 -74 l-73 -33 -6 26 c-4 14 -3 46 2 71 l9 45
135 59 c74 33 164 72 200 88 36 16 106 48 155 73 50 24 187 88 305 142 118 54
219 102 224 106 5 4 6 15 3 23 -7 18 -12 16 -212 -79 -66 -31 -147 -70 -180
-85 -33 -15 -130 -60 -215 -100 -157 -73 -193 -90 -332 -154 -43 -19 -78 -40
-78 -45 0 -6 -4 -11 -8 -11 -7 0 -8 36 -4 132 1 26 6 36 15 32 12 -4 76 22
222 91 160 76 319 150 389 183 299 139 341 161 344 176 5 25 -17 20 -114 -25
-49 -23 -111 -51 -139 -64 -27 -13 -130 -62 -229 -109 -98 -47 -179 -86 -181
-86 -2 0 -69 -31 -150 -70 -81 -38 -149 -70 -151 -70 -2 0 -4 126 -4 280 0
273 0 280 -20 280 -20 0 -20 -7 -20 -485z"/>
<path d="M1913 2453 c-10 -4 -13 -110 -13 -484 0 -263 3 -479 8 -479 31 1 32
17 32 490 1 261 -3 476 -7 477 -4 1 -14 -1 -20 -4z"/>
<path d="M1750 2375 c-6 -8 -22 -17 -33 -21 -12 -3 -49 -19 -82 -34 -33 -15
-78 -35 -100 -45 -22 -10 -98 -46 -170 -80 -71 -34 -146 -69 -165 -78 -19 -8
-79 -36 -134 -61 -54 -25 -100 -46 -101 -46 -2 0 -79 -36 -170 -80 -142 -68
-165 -83 -155 -95 7 -8 15 -13 19 -12 3 2 22 11 41 19 63 29 313 145 413 192
53 25 99 46 102 46 2 0 71 32 152 71 194 93 318 149 354 159 27 8 29 7 29 -19
0 -65 -13 -122 -26 -117 -8 3 -66 -19 -129 -49 -64 -30 -118 -55 -120 -55 -7
0 -309 -139 -520 -240 -130 -62 -172 -81 -223 -100 -18 -7 -31 -18 -29 -24 7
-20 61 -7 157 38 52 24 148 69 214 100 65 31 120 56 122 56 2 0 57 25 121 56
65 31 163 76 218 101 55 25 123 56 152 69 28 13 54 24 57 24 8 0 8 -69 0 -106
-5 -26 -17 -34 -122 -79 -64 -27 -166 -73 -225 -102 -59 -29 -109 -53 -111
-53 -2 0 -59 -26 -127 -59 -263 -124 -325 -151 -349 -151 -12 0 -19 -9 -22
-31 -4 -28 -3 -30 19 -24 12 3 93 39 179 81 86 41 258 122 382 180 125 58 260
123 300 144 l72 39 1 -37 c0 -20 0 -148 -1 -284 -1 -156 2 -248 9 -248 36 0
36 -4 33 490 -1 264 -6 480 -11 480 -5 0 -14 -7 -21 -15z"/>
<path d="M1460 1135 c-160 -45 -240 -154 -248 -337 -9 -202 73 -322 257 -379
63 -19 88 -21 171 -16 93 6 176 28 192 51 4 6 8 39 8 74 0 61 -11 77 -35 53
-33 -32 -213 -51 -286 -31 -81 23 -153 98 -147 155 l3 30 250 2 c138 1 258 4
268 7 22 6 22 34 -3 130 -34 128 -98 211 -194 250 -58 24 -170 29 -236 11z
m155 -116 c53 -15 111 -74 120 -123 4 -21 4 -41 -1 -45 -5 -5 -87 -6 -182 -3
-132 3 -175 8 -179 18 -7 18 37 93 68 116 27 20 94 47 119 48 8 0 33 -5 55
-11z"/>
<path d="M3024 1129 c-123 -38 -181 -145 -143 -260 24 -71 90 -118 203 -144
137 -32 197 -75 177 -127 -29 -77 -182 -87 -329 -22 l-53 23 3 -77 3 -76 50
-20 c40 -16 75 -20 180 -20 144 -1 179 10 244 74 59 60 68 184 18 259 -33 49
-78 73 -209 111 -140 41 -175 69 -148 120 27 51 128 63 248 30 40 -11 77 -18
83 -15 8 6 5 52 -7 112 -6 29 -61 44 -174 49 -63 2 -101 -2 -146 -17z"/>
<path d="M476 1108 c-3 -17 -6 -48 -6 -69 l0 -39 164 0 c102 0 167 -4 171 -10
4 -6 -2 -24 -12 -40 -32 -52 -286 -424 -320 -469 -18 -24 -33 -50 -33 -57 0
-19 609 -21 628 -2 15 15 16 77 2 114 l-10 27 -175 -5 c-173 -4 -175 -4 -169
16 3 12 14 32 23 46 10 14 84 124 166 245 81 121 154 227 161 236 8 8 14 20
14 26 0 7 -97 11 -299 12 l-299 0 -6 -31z"/>
<path d="M2072 1123 c-10 -20 -7 -433 3 -503 4 -24 15 -61 25 -80 71 -139 284
-186 396 -88 29 26 37 29 45 17 5 -8 9 -21 9 -30 0 -9 7 -20 16 -23 26 -10
122 -7 129 5 4 5 6 166 6 357 -2 258 -5 348 -14 354 -14 9 -99 11 -121 2 -14
-5 -16 -36 -16 -238 0 -220 -1 -233 -23 -271 -53 -95 -192 -113 -263 -33 -39
42 -44 81 -44 313 0 252 6 235 -85 235 -42 0 -56 -4 -63 -17z m85 -180 c-2
-27 -3 -5 -3 47 0 52 1 74 3 48 2 -27 2 -69 0 -95z m480 85 c-2 -13 -4 -5 -4
17 -1 22 1 32 4 23 2 -10 2 -28 0 -40z m-480 -245 c-3 -10 -5 -2 -5 17 0 19 2
27 5 18 2 -10 2 -26 0 -35z m0 -100 c-2 -16 -4 -3 -4 27 0 30 2 43 4 28 2 -16
2 -40 0 -55z"/>
</g>
</svg>
